<svg width="17" height="17" viewBox="0 0 17 17" fill="none" xmlns="http://www.w3.org/2000/svg">
<path d="M13.8189 12.6961C13.9679 12.845 14.0516 13.0471 14.0516 13.2578C14.0516 13.4684 13.9679 13.6705 13.8189 13.8194C13.67 13.9684 13.4679 14.0521 13.2572 14.0521C13.0466 14.0521 12.8445 13.9684 12.6955 13.8194L8.50008 9.62265L4.3033 13.8181C4.15433 13.9671 3.95228 14.0508 3.74161 14.0508C3.53094 14.0508 3.32889 13.9671 3.17992 13.8181C3.03096 13.6692 2.94727 13.4671 2.94727 13.2564C2.94727 13.0458 3.03096 12.8437 3.17992 12.6947L7.37671 8.49928L3.18125 4.30249C3.03228 4.15352 2.94859 3.95148 2.94859 3.74081C2.94859 3.53013 3.03228 3.32809 3.18125 3.17912C3.33021 3.03015 3.53226 2.94646 3.74293 2.94646C3.9536 2.94646 4.15565 3.03015 4.30462 3.17912L8.50008 7.37591L12.6969 3.17846C12.8458 3.02949 13.0479 2.9458 13.2586 2.9458C13.4692 2.9458 13.6713 3.02949 13.8202 3.17846C13.9692 3.32743 14.0529 3.52947 14.0529 3.74014C14.0529 3.95082 13.9692 4.15286 13.8202 4.30183L9.62346 8.49928L13.8189 12.6961Z" fill="white"/>
</svg>
